<?xml version="1.0" encoding="utf-8"?>
<!-- Generator: Adobe Illustrator 24.1.2, SVG Export Plug-In . SVG Version: 6.00 Build 0)  -->
<svg version="1.1" id="hhs-logo" xmlns="http://www.w3.org/2000/svg" xmlns:xlink="http://www.w3.org/1999/xlink" x="0px" y="0px"
	 viewBox="0 0 313.8 60" style="enable-background:new 0 0 313.8 60;" xml:space="preserve">
<style type="text/css">
	.st0{fill:#4A8B2C;}
</style>
<g>
	<path class="st0" d="M77,38.7c-0.2-0.1-0.5-0.1-0.7-0.2c-0.4-0.4-0.1-1.2,0.2-1.3c2.8-1.1,6-0.4,8,1.9c0.4,3.4-3.6,4.5-6.1,5.4
		c-0.1,1,0.4,1.9,0.2,2.8c-0.2,0.6-0.9,1.1-1.7,0.9c-0.2-0.1-0.3-0.3-0.4-0.4c-0.3-2.4-0.2-4.7,0-7C76.6,40.1,76.6,39.3,77,38.7z
		 M78.6,42.4c1.4,0.5,3.5-0.9,3.9-2.5c-1.2-0.9-2.6-1.9-4.1-1.5c-0.1,0,0.4,0.3,0.4,0.6c0,0.5-0.3,0.9-0.3,1.4
		C78.5,41.1,78,42.2,78.6,42.4z"/>
	<path class="st0" d="M88,40.3c1.4,0.2,2.7,1.6,2.7,3.1c-0.3,0.9-2.3,1.6-3,2.3c-0.1,0-0.4,0.2-0.3,0.4c0.6,1.1,1.8,0.6,2.8,0.1
		c0.7,0.5,0.3,1.6-0.4,1.7c-0.8,0.1-1.7,0.3-2.6,0c-1.8-0.8-2.2-2.9-2.2-4.6C84.9,41.4,86.3,40.1,88,40.3z M88.9,42.9
		c0.4-0.9-1.1-1.4-1.8-1c-0.8,0.4-0.6,2.1-0.1,2.1C87.8,44,88.6,43.8,88.9,42.9z"/>
	<path class="st0" d="M91.3,42.3c0.3-1,0.9-1.5,1.2-2c0.4-1,1.7-0.7,2.4,0.1c0.5,0.5,0.7,1.2,0.9,1.8c0.4,1.4-0.3,2.6-1.2,3.7
		c-0.4,0.4-1.3,0.4-1.8,0.2C91.4,45.2,90.9,43.6,91.3,42.3z M93.6,41.6c-0.4-0.4-2.3,2.1-0.5,2.5C94.5,44.4,94.6,42.6,93.6,41.6z"/>
	<path class="st0" d="M96.4,41.3c0.5-0.4,0-1.2,0.6-1.6c0.5-0.3,1.1-0.4,1.4,0c0.3,0.3,0.1,0.8,0.3,0.9c1.5,0.2,3.6,0.7,3.4,2.4
		c-0.3,2.4-2.8,2.2-4.4,2.8c-0.3,1.7-0.2,2.3,0.3,4c0,0.1,0.3,0.4,0.4,0.6c0.3,0.7-0.8,0.7-1.3,0.5c-0.7-0.2-0.7-1.2-0.8-1.9
		c-0.3-2.4,0.2-4.6,0.4-7C96.6,41.8,96.2,41.5,96.4,41.3z M98.1,44.3c0.7,0.3,2.1-0.2,2.2-1.4c0.1-0.5-0.3-0.7-0.6-0.8
		c-0.4-0.2-1-0.3-1.2,0C98,42.6,97.7,44.1,98.1,44.3z"/>
	<path class="st0" d="M103,37.3c0.3-0.7,1.7-0.9,1.8,0.2c0,0.2-0.1,0.5-0.1,0.7c0,1.3,0.1,2.6,0,3.9c-0.1,2,0.5,4-0.4,5.8
		c-0.3,0.6-0.9,0.5-1.4,0.3c-0.3-0.2-0.4-0.6-0.3-1c0.5-1.8,0.4-3.6,0.5-5.5C103.1,40.2,102.3,38.5,103,37.3z"/>
	<path class="st0" d="M109,40.3c1.4,0.2,2.7,1.6,2.7,3.1c-0.3,0.9-2.3,1.6-3,2.3c-0.1,0-0.4,0.2-0.3,0.4c0.6,1.1,1.8,0.6,2.8,0.1
		c0.7,0.5,0.3,1.6-0.4,1.7c-0.8,0.1-1.7,0.3-2.6,0c-1.8-0.8-2.2-2.9-2.2-4.6C106,41.4,107.3,40.1,109,40.3z M109.9,42.9
		c0.4-0.9-1.1-1.4-1.8-1c-0.8,0.4-0.6,2.1-0.1,2.1C108.8,44,109.6,43.8,109.9,42.9z"/>
	<path class="st0" d="M117.1,38.2c1.2-1.2,3.9-1.8,4.4,0.3c0,0.3-0.3,0.7-0.6,0.6c-0.7-0.1-1.4-0.5-2.2-0.2c-2.1,0.7-1.8,3.1-1,4.7
		c0.7-0.2,2.3-1.2,3.1-1c0.3,0,0.5,0.4,0.3,0.8c-0.3,0.8-2.7,1-2.8,1.6c-0.1,0.8,0.9,1.4,1.2,2.1c0.2,0.5-0.8,0.8-1.2,0.6
		c-0.9-0.6-0.9-1.7-1.8-2.2c-0.2,0-0.6,0.1-1,0c-0.3,0-0.4-0.4-0.3-0.6c0.2-0.3,0.8-0.3,0.8-0.8c-0.1-1-0.5-2.1-0.4-3.2
		C115.8,39.7,116.4,38.9,117.1,38.2z"/>
	<path class="st0" d="M122.1,42.3c0.3-1,0.9-1.5,1.2-2c0.4-1,1.7-0.7,2.4,0.1c0.5,0.5,0.7,1.2,0.9,1.8c0.4,1.4-0.3,2.6-1.2,3.7
		c-0.4,0.4-1.3,0.4-1.8,0.2C122.3,45.2,121.7,43.6,122.1,42.3z M124.5,41.6c-0.4-0.4-2.3,2.1-0.5,2.5
		C125.4,44.4,125.5,42.6,124.5,41.6z"/>
	<path class="st0" d="M127.3,40c0.9-0.8,2,0.3,1.8,1.4c1.1-0.2,1.4-1.7,2.6-1.4c0.5,0.2,1,0.4,0.6,0.9c-0.7,1-1.8,1.5-2.6,2.6
		c-0.3,0.4-0.1,0.9-0.3,1.3c-0.2,0.3-0.2,0.7,0.2,1.2c0.4,0.5,0.3,1.4-0.2,1.8c-0.4,0.5-1.2,0.5-1.5,0.1c-0.3-0.2-0.3-0.5-0.3-0.8
		c0.1-1.4-0.1-3-0.3-4.4C127.4,41.7,126.5,40.7,127.3,40z"/>
	<path class="st0" d="M139.9,48c-1.3-0.2-2.7-0.2-3.5-1.4c-0.5-0.7-0.3-1.9,0.2-2.5c1.5-2,4-1.4,4-1.4c0.2-0.2,0.3-1.1-0.1-1.1
		c-1.1-0.2-1.7,0.3-2.7,0.6c-0.7,0.3-0.9-1.2-0.7-1.4c1.3-0.9,4-1.4,4.8,0.3c0.7,1.5-0.1,3.1-0.3,4.8c-0.1,1.1-0.2,3.5-1.2,2.8
		C140.2,48.4,140.2,48,139.9,48z M140.4,43.9c-1,0.4-2.9,0.1-2.9,1.6c0,0.8,2.5,1.2,2.7,0.9C140.3,45.5,140.8,44.9,140.4,43.9z"/>
	<path class="st0" d="M143.1,41.3c0.2-0.5,1.2-0.5,1.4,0.1c0.1,0.5-0.2,0.9-0.2,1.4c0.1,0.1,0.2,0.3,0.2,0.2c0.6-1,1.1-2.1,2.4-1.8
		c1,1.6,0.9,3.6,1,5.4c0.1,0.3,0.1,0.8-0.2,0.9c-0.5,0.1-1.2,0.3-1.2-0.2c-0.2-1.5-0.1-3-0.4-4.4c-0.9,1-1,2.4-1.8,3.6
		c-0.3,0.5-1,0.5-1.3,0c-0.3-0.7-0.1-1.5-0.1-2.3C143,43.3,142.8,42.2,143.1,41.3z"/>
	<path class="st0" d="M149.8,41.6c0.2-0.5,0.9-0.6,1.4-0.4c0.3,0.1,0.7,0.6,0.4,0.9c-0.6,0.8-0.2,1.6-0.5,2.3
		c-0.3,0.9,0.2,1.7,0,2.5c0,0.1-0.1,0.2-0.2,0.2c-0.6,0.2-1.2,0.2-1.4-0.3c-0.3-1-0.1-2.1-0.1-3.1C149.5,43,149.5,42.2,149.8,41.6z
		 M150.2,38.3c0.6-0.3,1.3-0.3,1.6,0.2c0.3,0.5-0.2,1.3-0.5,1.5c-0.4,0.2-1,0.1-1.4-0.3C149.7,39.2,150,38.4,150.2,38.3z"/>
	<path class="st0" d="M154.1,40.7c1.1,0.3,0,1.7,0.5,2.4c1.1-1,1.3-3.4,3.1-2.7c0.1,0.1,0.3,0.3,0.4,0.3c0.2,0.7,0.1,1.4,0.4,2.1
		c0.9-1,1.9-2.6,3.4-2c0.5,0.3,0.3,0.9,0.4,1.4c0.3,2.1,0.3,4.3-0.5,6.4c-0.2,0.6-1.1,0.7-1.7,0.3c-0.1,0-0.2-0.4-0.1-0.6
		c0.6-1.7,0.6-3.6,0.4-5.4c0-0.3-0.4,0-0.5,0.2c-0.7,1.2-1.2,2.4-1.7,3.7c-0.3,0.5-1.4,1.1-1.9,0.4c-0.5-1.1,0.4-2.5-0.1-3.8
		c-0.7,1.2-1.1,2.6-1.9,3.8c-0.4,0.5-1.4,0.5-1.6,0c-0.5-1.3-0.1-2.9-0.3-4.3C152.3,41.7,152.6,40.3,154.1,40.7z"/>
	<path class="st0" d="M167.1,48c-1.3-0.2-2.7-0.2-3.5-1.4c-0.5-0.7-0.3-1.9,0.2-2.5c1.5-2,4-1.4,4-1.4c0.2-0.2,0.3-1.1-0.1-1.1
		c-1.1-0.2-1.7,0.3-2.7,0.6c-0.7,0.3-0.9-1.2-0.7-1.4c1.3-0.9,4-1.4,4.8,0.3c0.7,1.5-0.1,3.1-0.3,4.8c-0.1,1.1-0.2,3.5-1.2,2.8
		C167.4,48.4,167.4,48,167.1,48z M167.6,43.9c-1,0.4-2.9,0.1-2.9,1.6c0,0.8,2.5,1.2,2.7,0.9C167.6,45.5,168,44.9,167.6,43.9z"/>
	<path class="st0" d="M170.4,37.3c0.3-0.7,1.7-0.9,1.8,0.2c0,0.2-0.1,0.5-0.1,0.7c0,1.3,0.1,2.6,0,3.9c-0.1,2,0.5,4-0.4,5.8
		c-0.2,0.6-0.9,0.5-1.4,0.3c-0.3-0.2-0.4-0.6-0.3-1c0.5-1.8,0.4-3.6,0.5-5.5C170.5,40.2,169.8,38.5,170.4,37.3z"/>
	<path class="st0" d="M179.2,41.6c0.1,0.3-0.1,0.8-0.3,0.9c-0.9,0.6-2.2-1.6-3.6-0.7c-0.5,0.3,0.3,1.2,0.7,1.3
		c1.1,0.4,2,0.8,2.9,1.6c0.5,0.5,0.3,1.5-0.1,2.1c-0.9,1.6-4.3,2.4-5.4,0.2c-0.2-0.5,0.3-1.1,0.9-1.1c0.4,0,0.5,0.7,0.8,0.8
		c0.9,0.4,2.3,0,2.3-1c0-0.3-0.5-0.7-0.8-0.8c-1.2-0.5-2.6-0.9-3.2-2.1c-0.7-1.4,2.1-3.2,3.3-2.7C177.7,40.5,178.8,40.8,179.2,41.6z
		"/>
	<path class="st0" d="M181.6,48c-1,0.6-1.7-0.4-1.8-1.2c-0.2-1.4,1.3-1.6,1.9-1.1C182.3,46,182.4,47.5,181.6,48z"/>
	<path class="st0" d="M188.7,37c0.2-0.3,1-0.5,1.2-0.1c1,2,1.3,4.2,1.9,6.5c0,0.2,0.4,0.2,0.6,0.5c0.1,0.2,0.1,0.4,0,0.5
		c-0.6,1.2,0.6,2.2,0.4,3.3c-0.1,0.5-1,0.7-1.4,0.2c-0.6-0.8-0.2-2.2-1-2.7c-0.7-0.4-1.7-0.3-2.4,0.3c-0.8,0.6-0.3,3.4-2.1,2.5
		c-0.2-1.1,0.4-2.2,0.7-3.3c0.3-1.5,0.7-3,1.2-4.5C188.1,39.1,188,37.9,188.7,37z M188.3,43.8c0.4,0.2,1.6,0.3,1.7-0.2
		c0.3-1.1-0.3-2.3-0.8-3.3c-0.4,0.5-0.5,1.1-0.6,1.6C188.6,42.6,187.9,43.6,188.3,43.8z"/>
	<path class="st0" d="M193.6,41.3c0.2-0.5,1.2-0.5,1.4,0.1c0.1,0.5-0.2,0.9-0.2,1.4c0.1,0.1,0.2,0.3,0.2,0.2c0.6-1,1.1-2.1,2.4-1.8
		c1,1.6,0.9,3.6,1,5.4c0.1,0.3,0.1,0.8-0.2,0.9c-0.5,0.1-1.2,0.3-1.2-0.2c-0.2-1.5-0.1-3-0.4-4.4c-0.9,1-1,2.4-1.8,3.6
		c-0.3,0.5-1,0.5-1.3,0c-0.2-0.7-0.1-1.5-0.1-2.3C193.6,43.3,193.3,42.2,193.6,41.3z"/>
	<path class="st0" d="M200.4,41.6c0.2-0.5,0.9-0.6,1.4-0.4c0.3,0.1,0.7,0.6,0.4,0.9c-0.6,0.8-0.2,1.6-0.5,2.3
		c-0.3,0.9,0.2,1.7,0,2.5c0,0.1-0.1,0.2-0.2,0.2c-0.6,0.2-1.2,0.2-1.4-0.3c-0.3-1-0.1-2.1-0.1-3.1C200,43,200,42.2,200.4,41.6z
		 M200.7,38.3c0.6-0.3,1.3-0.3,1.6,0.2c0.3,0.5-0.2,1.3-0.5,1.5c-0.4,0.2-1,0.1-1.4-0.3C200.2,39.2,200.5,38.4,200.7,38.3z"/>
	<path class="st0" d="M204.6,40.7c1.1,0.3,0,1.7,0.5,2.4c1.1-1,1.3-3.4,3.1-2.7c0.1,0.1,0.3,0.3,0.4,0.3c0.2,0.7,0.1,1.4,0.4,2.1
		c0.9-1,1.9-2.6,3.4-2c0.5,0.3,0.3,0.9,0.4,1.4c0.3,2.1,0.3,4.3-0.5,6.4c-0.2,0.6-1.1,0.7-1.7,0.3c-0.1,0-0.2-0.4-0.1-0.6
		c0.6-1.7,0.6-3.6,0.4-5.4c0-0.3-0.4,0-0.5,0.2c-0.7,1.2-1.2,2.4-1.7,3.7c-0.3,0.5-1.4,1.1-1.9,0.4c-0.5-1.1,0.4-2.5-0.1-3.8
		c-0.7,1.2-1.1,2.6-1.9,3.8c-0.4,0.5-1.4,0.5-1.6,0c-0.5-1.3-0.1-2.9-0.3-4.3C202.8,41.7,203.2,40.3,204.6,40.7z"/>
	<path class="st0" d="M217.7,48c-1.3-0.2-2.7-0.2-3.5-1.4c-0.5-0.7-0.3-1.9,0.2-2.5c1.5-2,4-1.4,4-1.4c0.2-0.2,0.3-1.1-0.1-1.1
		c-1.1-0.2-1.7,0.3-2.7,0.6c-0.7,0.3-0.9-1.2-0.7-1.4c1.3-0.9,4-1.4,4.8,0.3c0.7,1.5-0.1,3.1-0.3,4.8c-0.1,1.1-0.2,3.5-1.2,2.8
		C217.9,48.4,217.9,48,217.7,48z M218.1,43.9c-1,0.4-2.9,0.1-2.9,1.6c0,0.8,2.5,1.2,2.7,0.9C218.1,45.5,218.5,44.9,218.1,43.9z"/>
	<path class="st0" d="M220.9,37.3c0.3-0.7,1.7-0.9,1.8,0.2c0,0.2-0.1,0.5-0.1,0.7c0,1.3,0.1,2.6,0,3.9c-0.1,2,0.5,4-0.4,5.8
		c-0.2,0.6-0.9,0.5-1.4,0.3c-0.3-0.2-0.4-0.6-0.3-1c0.5-1.8,0.4-3.6,0.5-5.5C221.1,40.2,220.3,38.5,220.9,37.3z"/>
	<path class="st0" d="M229.7,41.6c0.1,0.3-0.1,0.8-0.3,0.9c-0.9,0.6-2.2-1.6-3.6-0.7c-0.5,0.3,0.3,1.2,0.7,1.3
		c1.1,0.4,2,0.8,2.9,1.6c0.5,0.5,0.3,1.5-0.1,2.1c-0.9,1.6-4.3,2.4-5.4,0.2c-0.2-0.5,0.3-1.1,0.9-1.1c0.4,0,0.5,0.7,0.8,0.8
		c0.9,0.4,2.3,0,2.3-1c0-0.3-0.5-0.7-0.8-0.8c-1.2-0.5-2.6-0.9-3.2-2.1c-0.7-1.4,2.1-3.2,3.3-2.7C228.2,40.5,229.3,40.8,229.7,41.6z
		"/>
	<path class="st0" d="M235.2,38.2c1.2-1.2,3.9-1.8,4.4,0.3c0,0.3-0.3,0.7-0.6,0.6c-0.7-0.1-1.4-0.5-2.2-0.2c-2.1,0.7-1.8,3.1-1,4.7
		c0.7-0.2,2.4-1.2,3.1-1c0.3,0,0.5,0.4,0.3,0.8c-0.3,0.8-2.7,1-2.8,1.6c-0.1,0.8,0.9,1.4,1.2,2.1c0.2,0.5-0.8,0.8-1.2,0.6
		c-0.9-0.6-0.9-1.7-1.8-2.2c-0.2,0-0.6,0.1-1,0c-0.3,0-0.4-0.4-0.3-0.6c0.2-0.3,0.8-0.3,0.8-0.8c-0.1-1-0.5-2.1-0.4-3.2
		C233.9,39.7,234.4,38.9,235.2,38.2z"/>
	<path class="st0" d="M240.2,42.3c0.3-1,0.9-1.5,1.2-2c0.4-1,1.7-0.7,2.4,0.1c0.5,0.5,0.7,1.2,0.9,1.8c0.4,1.4-0.3,2.6-1.2,3.7
		c-0.4,0.4-1.3,0.4-1.8,0.2C240.3,45.2,239.8,43.6,240.2,42.3z M242.6,41.6c-0.4-0.4-2.3,2.1-0.5,2.5
		C243.4,44.4,243.5,42.6,242.6,41.6z"/>
	<path class="st0" d="M245.4,40c0.9-0.8,2,0.3,1.8,1.4c1.1-0.2,1.4-1.7,2.6-1.4c0.5,0.2,1,0.4,0.6,0.9c-0.7,1-1.8,1.5-2.5,2.6
		c-0.2,0.4-0.1,0.9-0.3,1.3c-0.2,0.3-0.2,0.7,0.2,1.2c0.4,0.5,0.3,1.4-0.2,1.8c-0.4,0.5-1.2,0.5-1.5,0.1c-0.3-0.2-0.3-0.5-0.3-0.8
		c0.1-1.4-0.1-3-0.3-4.4C245.4,41.7,244.5,40.7,245.4,40z"/>
	<path class="st0" d="M254.5,41.3c0.5-0.4,0-1.2,0.6-1.6c0.5-0.3,1.1-0.4,1.4,0c0.2,0.3,0.1,0.8,0.2,0.9c1.5,0.2,3.6,0.7,3.4,2.4
		c-0.2,2.4-2.8,2.2-4.4,2.8c-0.3,1.7-0.2,2.3,0.2,4c0,0.1,0.3,0.4,0.4,0.6c0.3,0.7-0.8,0.7-1.3,0.5c-0.7-0.2-0.7-1.2-0.8-1.9
		c-0.3-2.4,0.2-4.6,0.4-7C254.7,41.8,254.3,41.5,254.5,41.3z M256.2,44.3c0.7,0.3,2.1-0.2,2.2-1.4c0.1-0.5-0.3-0.7-0.6-0.8
		c-0.4-0.2-1-0.3-1.2,0C256.1,42.6,255.8,44.1,256.2,44.3z"/>
	<path class="st0" d="M263.6,40.3c1.4,0.2,2.7,1.6,2.7,3.1c-0.3,0.9-2.3,1.6-3,2.3c-0.1,0-0.4,0.2-0.3,0.4c0.6,1.1,1.8,0.6,2.8,0.1
		c0.7,0.5,0.3,1.6-0.4,1.7c-0.8,0.1-1.7,0.3-2.6,0c-1.8-0.8-2.2-2.9-2.2-4.6C260.5,41.4,261.8,40.1,263.6,40.3z M264.4,42.9
		c0.4-0.9-1.1-1.4-1.8-1c-0.8,0.4-0.6,2.1-0.1,2.1C263.3,44,264.2,43.8,264.4,42.9z"/>
	<path class="st0" d="M266.8,42.3c0.3-1,0.9-1.5,1.2-2c0.4-1,1.7-0.7,2.4,0.1c0.5,0.5,0.7,1.2,0.9,1.8c0.4,1.4-0.3,2.6-1.2,3.7
		c-0.4,0.4-1.3,0.4-1.8,0.2C266.9,45.2,266.4,43.6,266.8,42.3z M269.2,41.6c-0.4-0.4-2.4,2.1-0.5,2.5
		C270,44.4,270.2,42.6,269.2,41.6z"/>
	<path class="st0" d="M271.9,41.3c0.5-0.4,0-1.2,0.6-1.6c0.5-0.3,1.1-0.4,1.4,0c0.3,0.3,0.1,0.8,0.3,0.9c1.5,0.2,3.6,0.7,3.4,2.4
		c-0.3,2.4-2.8,2.2-4.4,2.8c-0.3,1.7-0.2,2.3,0.3,4c0,0.1,0.3,0.4,0.4,0.6c0.3,0.7-0.8,0.7-1.3,0.5c-0.7-0.2-0.7-1.2-0.8-1.9
		c-0.3-2.4,0.2-4.6,0.4-7C272.1,41.8,271.8,41.5,271.9,41.3z M273.6,44.3c0.7,0.3,2.1-0.2,2.2-1.4c0.1-0.5-0.3-0.7-0.6-0.8
		c-0.4-0.2-1-0.3-1.2,0C273.5,42.6,273.2,44.1,273.6,44.3z"/>
	<path class="st0" d="M278.5,37.3c0.3-0.7,1.7-0.9,1.8,0.2c0,0.2-0.1,0.5-0.1,0.7c0,1.3,0.1,2.6,0,3.9c-0.1,2,0.5,4-0.4,5.8
		c-0.3,0.6-0.9,0.5-1.4,0.3c-0.3-0.2-0.4-0.6-0.3-1c0.5-1.8,0.4-3.6,0.5-5.5C278.7,40.2,277.9,38.5,278.5,37.3z"/>
	<path class="st0" d="M284.6,40.3c1.4,0.2,2.7,1.6,2.7,3.1c-0.3,0.9-2.3,1.6-3,2.3c-0.1,0-0.4,0.2-0.3,0.4c0.6,1.1,1.8,0.6,2.8,0.1
		c0.7,0.5,0.3,1.6-0.4,1.7c-0.8,0.1-1.7,0.3-2.6,0c-1.8-0.8-2.2-2.9-2.2-4.6C281.5,41.4,282.8,40.1,284.6,40.3z M285.5,42.9
		c0.4-0.9-1.1-1.4-1.8-1c-0.8,0.4-0.6,2.1-0.1,2.1C284.4,44,285.2,43.8,285.5,42.9z"/>
	<path class="st0" d="M289.6,48c-1,0.6-1.7-0.4-1.8-1.2c-0.2-1.4,1.3-1.6,1.9-1.1C290.3,46,290.4,47.5,289.6,48z"/>
</g>
<g>
	<path class="st0" d="M77.8,28.2V22H72v6.2h-2.8V14.5H72v5.6h5.8v-5.6h2.8v13.7L77.8,28.2L77.8,28.2z"/>
	<path class="st0" d="M89.5,28.2V27c-0.9,0.9-1.9,1.4-3.2,1.4c-2.5,0-3.3-1.8-3.3-3.2c0-2.4,2.1-3.5,4.2-3.5c0.9,0,1.5,0.2,2.4,0.4
		c0-1.3-0.5-2.8-2.6-2.8c-1.2,0-2.1,0.5-2.7,1.5l-0.7-0.3c0.8-2,2.4-2.7,4.1-2.7c3.5,0,4.4,2.1,4.4,4.2v6.2
		C92,28.2,89.5,28.2,89.5,28.2z M89.5,23.6c-0.6-0.2-1-0.4-1.7-0.4c-1.1,0-2.1,0.6-2.1,1.9c0,1.1,0.7,1.8,1.8,1.8
		c0.7,0,1.4-0.3,2-0.7C89.5,26.1,89.5,23.6,89.5,23.6z"/>
	<path class="st0" d="M104.3,28.3h-0.9l-2.6-5.8l-2.6,5.8h-1l-3.7-10h2.7l1.9,5.8l2.6-5.8h0.9L104,24l2-5.8h2.1L104.3,28.3z"/>
	<path class="st0" d="M115.7,28.2V27c-0.9,0.9-1.9,1.4-3.2,1.4c-2.5,0-3.3-1.8-3.3-3.2c0-2.4,2.1-3.5,4.2-3.5c0.9,0,1.5,0.2,2.4,0.4
		c0-1.3-0.5-2.8-2.6-2.8c-1.2,0-2.1,0.5-2.7,1.5l-0.7-0.3c0.8-2,2.4-2.7,4.1-2.7c3.5,0,4.4,2.1,4.4,4.2v6.2
		C118.3,28.2,115.7,28.2,115.7,28.2z M115.7,23.6c-0.6-0.2-1-0.4-1.7-0.4c-1.1,0-2.1,0.6-2.1,1.9c0,1.1,0.7,1.8,1.8,1.8
		c0.7,0,1.4-0.3,2-0.7L115.7,23.6L115.7,23.6z"/>
	<path class="st0" d="M122.2,16.9c-0.8,0-1.4-0.7-1.4-1.5c0-0.8,0.7-1.4,1.4-1.4c0.8,0,1.5,0.6,1.5,1.4
		C123.6,16.3,123,16.9,122.2,16.9z M120.9,28.2v-10h2.6v10L120.9,28.2L120.9,28.2z"/>
	<path class="st0" d="M127.4,16.9c-0.8,0-1.4-0.7-1.4-1.5c0-0.8,0.7-1.4,1.4-1.4c0.8,0,1.5,0.6,1.5,1.4
		C128.9,16.3,128.2,16.9,127.4,16.9z M126.2,28.2v-10h2.6v10L126.2,28.2L126.2,28.2z"/>
	<path class="st0" d="M137.6,28.2V27c-0.9,0.9-1.9,1.4-3.2,1.4c-2.5,0-3.3-1.8-3.3-3.2c0-2.4,2.1-3.5,4.2-3.5c0.9,0,1.5,0.2,2.4,0.4
		c0-1.3-0.5-2.8-2.6-2.8c-1.2,0-2.1,0.5-2.7,1.5l-0.7-0.3c0.8-2,2.4-2.7,4.1-2.7c3.5,0,4.4,2.1,4.4,4.2v6.2
		C140.1,28.2,137.6,28.2,137.6,28.2z M137.6,23.6c-0.6-0.2-1-0.4-1.7-0.4c-1.1,0-2.1,0.6-2.1,1.9c0,1.1,0.7,1.8,1.8,1.8
		c0.7,0,1.4-0.3,2-0.7L137.6,23.6L137.6,23.6z"/>
	<path class="st0" d="M149.2,28.2v-6.5c0-1.1-0.3-2.2-1.7-2.2c-1,0-1.6,0.5-2.2,1.2v7.4h-2.6v-10h2.6v1.3c0.8-1,1.8-1.6,3.2-1.6
		c2,0,3.2,1.3,3.2,3.2v7.1L149.2,28.2L149.2,28.2z"/>
	<path class="st0" d="M169.2,28.2V22h-5.8v6.2h-2.8V14.5h2.8v5.6h5.8v-5.6h2.8v13.7L169.2,28.2L169.2,28.2z"/>
	<path class="st0" d="M181.1,28.2V27c-0.8,1-1.8,1.5-3.1,1.5c-2.1,0-3.3-1-3.3-3.2v-7.1h2.6v6.6c0,1,0.4,2.1,1.8,2.1
		c0.9,0,1.5-0.5,2-1.1v-7.6h2.6v10H181.1z"/>
	<path class="st0" d="M198.6,28.2v-7.1c0-0.8-0.4-1.5-1.5-1.5c-0.9,0-1.6,0.6-2,1.4v7.3h-2.6v-6.8c0-1-0.4-1.8-1.5-1.8
		c-0.9,0-1.6,0.7-1.9,1.4v7.3h-2.6v-10h2.6v1.2c0.8-1,1.8-1.5,3.2-1.5c1.1,0,2.3,0.4,2.8,1.8c0.7-1.1,1.9-1.8,3.2-1.8c2,0,3,1.2,3,3
		v7.2H198.6z"/>
	<path class="st0" d="M210,28.2V27c-0.9,0.9-1.9,1.4-3.2,1.4c-2.5,0-3.3-1.8-3.3-3.2c0-2.4,2.1-3.5,4.2-3.5c0.9,0,1.5,0.2,2.4,0.4
		c0-1.3-0.5-2.8-2.6-2.8c-1.2,0-2.1,0.5-2.7,1.5l-0.7-0.3c0.8-2,2.4-2.7,4.1-2.7c3.5,0,4.4,2.1,4.4,4.2v6.2
		C212.5,28.2,210,28.2,210,28.2z M210,23.6c-0.6-0.2-1-0.4-1.7-0.4c-1.1,0-2.1,0.6-2.1,1.9c0,1.1,0.7,1.8,1.8,1.8
		c0.7,0,1.4-0.3,2-0.7L210,23.6L210,23.6z"/>
	<path class="st0" d="M221.6,28.2v-6.5c0-1.1-0.3-2.2-1.7-2.2c-1,0-1.6,0.5-2.2,1.2v7.4h-2.6v-10h2.6v1.3c0.8-1,1.8-1.6,3.2-1.6
		c2,0,3.2,1.3,3.2,3.2v7.1L221.6,28.2L221.6,28.2z"/>
	<path class="st0" d="M229.2,23.5c0.1,2,1.4,3.5,3.5,3.5c1.6,0,2.3-0.6,3.2-1.8l0.6,0.3c-0.8,2.4-2.6,3.1-4.7,3.1
		c-4,0-5.4-3-5.4-5.5c0-3,2-5.3,5.4-5.3c3,0,5.1,1.8,5.1,5.4v0.3L229.2,23.5L229.2,23.5z M234,21.9c-0.2-1.3-0.6-2.5-2.3-2.5
		c-1.7,0-2.2,1.2-2.5,2.5H234z"/>
	<path class="st0" d="M253.9,17.7c-0.7-2-2.9-2.1-3.4-2.1c-1.1,0-3,0.4-3,2.1c0,1.1,0.8,1.7,2.6,2.1c3.6,0.7,4.8,2.2,4.8,4.2
		c0,2.1-1.5,4.6-5.5,4.6c-3.6,0-5-2.1-5.1-4.1l0.8-0.3c1.1,2.6,3.5,2.7,4.1,2.7c2,0,2.9-1.3,2.9-2.3c0-1.7-1.6-2-2.9-2.3
		c-2.6-0.4-4.4-1.6-4.4-4c0-1.4,0.7-4.3,5.3-4.3c2.1,0,4.3,0.7,4.6,3.5L253.9,17.7z"/>
	<path class="st0" d="M261.9,17.8c3.5,0,5.2,2.6,5.2,5.3c0,1.8-0.9,5.4-5.3,5.4c-3.1,0-5-2.3-5-5.3
		C256.8,19.8,259.1,17.8,261.9,17.8z M261.9,27c1.9,0,2.4-2.3,2.4-3.8c0-1.6-0.4-3.9-2.4-3.9c-1.9,0-2.4,2.2-2.4,3.7
		C259.5,24.7,259.9,27,261.9,27z"/>
	<path class="st0" d="M277.5,21.2c-0.5-1.2-1.5-2-2.8-2c-1.8,0-3.1,1.6-3.1,3.9c0,1.9,0.9,3.9,3.1,3.9c1.3,0,2.2-0.7,2.8-1.9
		l0.7,0.3c-0.6,2.1-2.1,3.1-4.2,3.1c-3.1,0-5.1-2.3-5.1-5.3c0-3.1,1.9-5.5,5.1-5.5c2.1,0,3.7,1,4.2,3.2L277.5,21.2z"/>
	<path class="st0" d="M281.1,16.9c-0.8,0-1.4-0.7-1.4-1.5c0-0.8,0.7-1.4,1.4-1.4c0.8,0,1.5,0.6,1.5,1.4
		C282.5,16.3,281.9,16.9,281.1,16.9z M279.8,28.2v-10h2.6v10L279.8,28.2L279.8,28.2z"/>
	<path class="st0" d="M287.4,23.5c0.1,2,1.4,3.5,3.5,3.5c1.6,0,2.3-0.6,3.2-1.8l0.6,0.3c-0.8,2.4-2.6,3.1-4.7,3.1
		c-4,0-5.4-3-5.4-5.5c0-3,2-5.3,5.4-5.3c3,0,5.1,1.8,5.1,5.4v0.3L287.4,23.5L287.4,23.5z M292.3,21.9c-0.2-1.3-0.6-2.5-2.3-2.5
		c-1.7,0-2.2,1.2-2.5,2.5H292.3z"/>
	<path class="st0" d="M300.3,25.1c0,1.1,0.5,2.2,1.8,2.2c0.3,0,0.6-0.1,1-0.2l0.3,0.6c-0.8,0.6-1.5,0.8-2.5,0.8
		c-2,0-3.1-1.2-3.1-3.1v-5.7h-1.6v-1.6h1.6v-2.7h2.6v2.7h2.3v1.6h-2.3V25.1z"/>
	<path class="st0" d="M308.8,27.8c-1.1,2.5-1.9,4.3-5,4.3c-0.2,0-0.5,0-0.7,0v-0.7c2.1,0,3.2-2.4,3.9-4l0.2-0.4l-3.9-8.7h2.8
		l2.4,5.8l2.5-5.8h2.1L308.8,27.8z"/>
</g>
<path class="st0" d="M45.9,40.4c-0.5,0-0.9,0.2-1.2,0.6c0,0-0.1,0.2-0.1,0.2c-1.6,1.1-3.5,1.3-5.5,1.8c-0.7,0.2-3.2,0.8-5.6,0.8
	c-0.7,0-1.2,0-1.8-0.1c-0.3,0-0.6,0-0.9,0c-0.4,0-0.8,0-1.2,0c-0.8,0-1.9-0.1-2.3-0.3c-0.4-0.2-0.8-0.5-1.2-0.8
	c-0.5-0.4-0.6-0.7-1.1-1c-0.7-1.5-4.3-3.2-5.8-3.4l-0.1,0l-0.1,0c-1.3,0.7-1.2,1.2-1,2c0.1,0.5,0.3,0.9-0.2,1.6
	c-0.4,0.6-1.1,0.8-1.8,1.1c-0.7,0.3-1.5,0.6-2,1.3l-0.1,0.1l0,0.1c0.2,0.6,0.4,0.9,0.6,1.1c0.2,0.3,0.4,0.5,0.5,1l0,0.1l0.1,0
	c0.9,0.1,3.5,0.5,4.5,0.9c1,1,1.4,2.7,1.8,4.3c0.3,1,0.5,2,0.9,2.9c-1.3,0.1-1.4,1.8-1.6,1.9v0.4l4.9,1l0-0.3
	c-0.1-0.6,0.3-2,0.7-2.5c0.4-0.6,0.5-1.3,0.6-2c0-0.2,0.1-0.4,0.1-0.5c0.3-0.2,0.8-0.3,1.4-0.3c0.3,0,0.6,0,0.9,0
	c0.4,0,0.8,0.1,1.1,0h0l0,0c0.3-0.2,0.7-0.3,1.1-0.3c0.3,0,0.8,0.1,1,0.4l0.1,0.1c0.5,0.7,0.8,1.3,0.4,1.7c-0.7,0.6-0.6,1.4-0.5,2.1
	c0.1,0.5,0.1,1-0.1,1.4l-0.4,0.6l0.7-0.3c0.6-0.2,1.2-0.3,1.8-0.4c0.6-0.1,1.2-0.1,1.9-0.4c1.7-0.7,1.7-3.4,1.7-5.5
	c0-0.7,0-1.4,0-1.9c0.2-1.1,1.6-2.1,2.9-3c0.8-0.6,1.6-1.1,2.1-1.6c0.2-0.3,0.6-0.6,1.1-1c1.3-1.2,3-2.7,2.9-3.8
	C47.1,39.9,46.5,40.4,45.9,40.4L45.9,40.4z M36.3,50.8c0.1,1.5,0.4,4.1-0.4,5c-0.4-0.6-0.7-2.6-0.9-3.6c-0.1-0.7-0.3-1.3-0.5-1.8
	l-0.1-0.1l-0.2,0c-1,0-1.9,0.3-2.9,0.2c-0.8-0.1-2,0-2.8,0c-1,0-1.8-0.3-2.6-0.1l-0.1,0l0,0.1c-0.2,0.5,0,1.5-0.2,2.2
	c-0.2,1-0.9,1.9-1.3,2.6c-0.2-0.4-0.4-1-0.4-1.7c0-0.7-0.4-2.1-0.4-2.6c-0.1-0.5-0.6-1.3-0.7-1.9c-0.1-0.8-0.6-2-0.9-2.6l0-0.1
	c-0.4-0.7-1.6-1-2.1-1c0,0-0.1,0-0.1,0c-0.2,0-0.4,0-0.6,0c-0.3,0-0.7,0-1,0c-1,0-1.5-0.2-1.6-0.5c0-0.5,0.9-0.7,1.8-0.9
	c0.8-0.2,1.6-0.4,1.8-0.8l0.1-0.1l0-0.1c-0.2-0.5,0-1.8,0.2-2.2c1.2,0.3,2.1,1.3,3,2.4c0.5,0.5,0.9,1,1.3,1.4c1.2,1,2.6,1.2,4.4,1.2
	c0.1,0,1,0,1.1,0c0.9,0,1.4,0.1,2.3,0.1c0.7,0,1.3,0.4,2,0.4c0.8,0,1.6,0,2.2-0.2c1-0.2,1.9-0.7,2.9-1.1c0.9-0.4,1.7-0.9,2.6-1
	c-0.1,0.1-0.2,0.3-0.3,0.5c-0.8,0.6-1.5,1.6-2.3,2.2c-1.1,0.8-2.3,1.1-3.5,1.9l-0.1,0.1v0.1C35.8,49,36.2,50.2,36.3,50.8L36.3,50.8z
	"/>
<path class="st0" d="M58.2,24.5c-0.2-0.7-0.3-1.4-0.3-2.2c0-0.8-0.1-1.6-0.3-2.4c-0.4-1.2-0.9-2.4-1.6-3.5c-0.5-0.8-1-1.5-1.5-2.2
	c-0.2-0.3-0.4-0.5-0.6-0.8c-0.3-0.5-0.5-1-0.6-1.5c-0.1-0.4-0.3-0.9-0.5-1.3c-1.3-2.3-2.8-3.9-4.8-5c-0.4-0.3-0.9-0.5-1.4-0.7
	c-0.6-0.2-1.1-0.5-1.6-0.8c-0.3-0.2-0.6-0.4-0.9-0.6c-0.6-0.4-1.2-0.9-2-1.2c-0.4-0.2-0.8-0.2-1.2-0.3c-0.3,0-0.6-0.1-0.8-0.1
	c-0.2-0.1-0.4-0.2-0.7-0.3s-0.4-0.3-0.7-0.3C38.1,1,37.2,1,36.3,0.9c-0.3,0-0.6,0-1-0.1c-0.8-0.1-1.7-0.2-2.5-0.4
	C31.5,0.2,30.1,0,28.7,0c-0.4,0-0.7,0-1.1,0l-0.1,0c-1.3,0.7-3,0.8-4.5,0.9c-1.5,0.1-3,0.2-4.4,0.8c-2.3,1.1-4.8,2.3-7.1,3.9
	c-0.9,0.6-1.7,1.3-2.5,2C8.6,8.1,8.2,8.5,7.7,8.8C6.6,9.7,6,10.6,5.6,11.6c-0.3,1-0.8,1.6-1.4,2.3c-0.2,0.3-0.4,0.5-0.7,0.9
	c-0.4,0.6-0.6,1.4-0.8,2.1c-0.1,0.5-0.3,1-0.5,1.4c-0.8,1.7-1.3,3.3-1.8,4.8c-0.2,0.9-0.2,1.7-0.2,2.6c0,0.9,0,1.7-0.2,2.5
	c-0.4,1.5,0.4,4.4,0.5,4.7c0.2,0.9,0.3,1.8,0.4,2.7c0,0.5,0.1,1.1,0.1,1.6c0,0.3,0.1,0.6,0.1,1c0.2,1.4,0.4,2.9,0.9,4.2
	c0.2,0.6,0.6,1.1,1,1.5c0.4,0.5,0.7,0.9,1,1.5c0.7,1.8,2.2,3.2,3.7,4.6c0.3,0.3,0.7,0.6,1,0.9c1.6,1.6,2.9,2.6,4.7,3.7
	c0.4,0.2,0.8,0.6,1.2,0.9c0.4,0.3,0.8,0.7,1.3,1c1.1,0.7,2.2,1.2,3.3,1.6c2.6,1.1,4.9,1.6,7.3,1.6c0.4,0,0.7,0,1.1,0
	c0.4,0,0.8,0,1.3,0c0.4,0,0.7,0,1.1,0c0.4,0,0.7,0,1.1,0c1,0,2.1,0,3.6-0.4l0.3,0c0.7-0.1,1.7-0.3,2.3-0.6c0.4-0.1,0.8-0.4,1.1-0.6
	c0.1-0.1,1.1-0.1,1.2-0.2c0.6-0.4,0.4-0.6,1.1-0.8c0.5-0.2,1.1-0.3,1.6-0.6c2.4-1.2,4.6-2.9,6.6-4.6c1.9-1.5,4.2-3.6,5.8-6.3
	c0.3-0.5,0.5-1.1,0.7-1.6c0.2-0.7,0.4-1.3,0.8-1.8c0.6-0.7,1-1.5,1.3-2.3c0.1-0.3,0.3-0.6,0.4-0.9C60.2,34.1,59.4,28.4,58.2,24.5
	L58.2,24.5z M55.1,25.3c0.3,0.3,0.5,0.6,0.5,1c0.1,1.3,0.3,2.1,0.6,3.2c0.6,1.8,0.1,4-0.2,5.9l0,0.3c-0.4,2-1.5,4.3-3.4,6.8
	c-0.5,0.7-1,1.5-1.4,2.2c-0.7,1.1-1.3,2.2-2.2,3.1c-3.3,3.1-7.6,6.9-12.4,8.4c-2.2,0.7-4.8,1-7.4,1c-3.2,0-6.1-0.5-8.5-1.6
	C18.4,54.7,16,53.2,13,51c-1.1-0.9-2-1.8-2.9-2.8c-0.4-0.4-0.8-0.9-1.3-1.4c-1.8-1.9-3.1-4-3.7-6.2c-0.3-1-0.4-2.1-0.6-3.1
	c-0.2-1.3-0.4-2.7-0.8-4c-0.5-1.5-0.6-3.1-0.3-4.6c0.1-0.6,0.1-1.1,0.1-1.7c0-0.7,0-1.3,0.2-1.9l0-0.1c0-1.9,0.1-3.9,0.8-5.9
	c0.2-0.5,0.5-0.9,0.9-1.4c0.3-0.4,0.7-0.8,0.9-1.3c0.2-0.5,0.6-1,1-1.4C7.7,14.8,8,14.4,8.3,14c0.2-0.4,0.4-0.8,0.5-1.2
	c0.2-0.5,0.4-1,0.8-1.5c0.7-0.8,1.6-1.3,2.3-1.7c2-1.1,3.8-2.3,5.6-3.5c1.5-1,2.7-1.8,4.6-1.9c0.5,0,1,0,1.5,0c0.5,0,1,0,1.5,0
	c0.6,0,1.1-0.2,1.6-0.3c0.6-0.2,1.2-0.3,1.8-0.3h0.1c2.9,0.1,5.7,0.3,8.2,0.8c2.2,0.4,5,1.5,7.4,3c1.4,0.9,2.6,2.2,3.7,3.4
	c0.3,0.4,0.7,0.8,1,1.1c0.3,0.3,0.6,0.6,0.9,0.9c1.3,1.3,2.4,2.5,2.9,4.4c0.1,0.5,0.4,1,0.7,1.5c0.3,0.5,0.6,1,0.7,1.6
	c0.1,0.5,0.2,0.9,0.3,1.4c0.1,0.6,0.2,1.1,0.3,1.7c0,0.1,0,0.3,0,0.4c0,0.5,0,1,0.4,1.5L55.1,25.3L55.1,25.3z"/>
<path class="st0" d="M28.7,39.4c-0.8-0.7-2.6-1.4-1.7-2.9c0-1.3,0.8-2.4,0.8-4c-0.5-0.6-1.4-1.1-2.1-1.5c-0.4-0.2-1.2-0.8-1.3-1.3
	c0-0.5,0.6-1.2,0.9-1.7c0.5-0.9,1.1-1.3,1.4-2.1c0.3-0.2,0.5-0.5,0.8-0.8c0.5-0.7,1-1.5,1.6-2.2c0.4-0.5,1-1.5,1.4-1.6
	c0.4-0.1,0.8,0.2,1.2,0.3c0.9,1.2,1.4,2.8,1.4,4.5c0.4,0.1,0.8,0.7,1.4,1c0.3,0.2,1.2,0.7,1.4,0.7c0.5,0,0.8-0.7,1.1-1.1
	c-0.4-1.1-1.7-1.2-2-2.4c-0.2-0.8,0-1.9-0.2-2.8c0-0.1-0.1-0.4-0.2-0.5C34.4,20,33.9,20,33.1,20c-0.1,0-0.2-0.1-0.3-0.2
	c-0.2,0-0.5,0-0.8,0c-0.3,0-0.6-0.2-1-0.3c-0.4-0.1-0.8,0-1.1-0.1c-0.2,0-0.4-0.2-0.6-0.3c-0.7-0.2-1.5-0.2-2.1-0.3
	c-1.2-0.1-2.2-1-3.5-0.8c-1.7-0.9,0.6-1.7,1.2-2.3c0.6-2.3-1.6-2.6-3-3c-0.4,0.3-1,0.3-1.6,0.4c-0.5,0.5-0.8,1.5-0.7,2.5
	c0.2,0.6,1,0.4,1.1,0.9c0.1,0.3-0.2,0.9-0.4,1c-0.6,0.3-2.3-0.1-2.9-0.2c-2.6-0.5-5.7-1-8.2-0.8c0.1,1.8-0.7,2.6-0.8,4.3
	c-0.4,0.6-0.9,1.1-1.4,1.5c-0.6,0.2-0.8,0.7-1.4,0.9c0,0.8,0.2,1.4,0.7,1.7c1-0.3,1.7-0.8,2.4-1.3c0.5-0.3,1.2-0.6,1.5-0.9
	c0.4-0.5,0.2-1.1,0.2-1.7c0-0.1,0.1-0.3,0.2-0.4c0.1-0.9,0.3-1.8,1.1-1.7c0.8,0.1,0.9,1.2,1.4,1.7c0.4,1.7,1.2,2.9,1.4,4.7
	c0.4,1,0.8,1.9,1.1,2.9c-1.4,1.1-4,0.9-5.2,2.1c0.4,2.1,1.2,3.7,1.4,5.8c-0.3,0.6-1,0.8-1.3,1.4c-0.3,0.2-0.8,0.4-0.8,0.8
	c0,0.5,0.6,1.3,1,1.4c0.6,0.1,0.7-0.6,1.3-0.7c0.1-0.2,0.3-0.4,0.4-0.5c0.4-0.3,1.6-1,1.7-1.5c0.1-0.4-0.1-1.3-0.2-1.6
	c-0.1-0.4-0.4-0.8-0.5-1.4c-0.1-0.3-0.1-0.7-0.2-1c-0.1-0.3-0.4-0.7-0.4-1c0.1-0.8,1.3-0.8,2.1-0.9c0.5-0.1,0.8-0.4,1.3-0.6
	c0.7-0.3,1.5-0.4,2.2-0.6c-0.1-1.1-0.7-2.3-1-3.3c-0.6-1.6-1.4-3.6-2-5.3c-0.1-0.3-0.3-0.9-0.3-1.1c0.1-0.5,0.4-0.4,0.7-0.5
	c0.2-0.1,0.3-0.3,0.4-0.4c0.7-0.4,1.3-0.3,2.1-0.1c0.7,0.1,1.3,0.1,1.9,0.3c0.3,0.2,0.4,1.2,0.9,1.3c0.5,0,0.7-0.8,1.1-1
	c0.5-0.2,1.6-0.1,2.2,0.2c0.1,0,0.2,0.2,0.3,0.3c0.4,0.2,0.8,0.2,1,0.5c0.3,0.3,0.3,0.8,0.4,1.3c-0.7,1.4-1.9,2.7-2.8,4.2
	c-0.4,0.7-0.8,1.4-1.4,2.2c-0.3,0.4-1.4,1.6-1.4,2.1c0,0.4,1,1,1.4,1.3c0.7,0.5,1.4,0.8,1.9,1.2c0.3,0.2,0.7,0.4,0.9,0.7
	c0.1,1.7-0.4,3.1-0.8,4.4c0,0.1,0,0.3,0.1,0.4c-0.9,0.5,0.1,1.1,0.9,1c1,0.6,1.6,1.5,2.8,2C28.5,40.9,29.7,40.2,28.7,39.4L28.7,39.4
	z"/>
<path class="st0" d="M51,30.9c-0.8-0.3-2.1,0.3-2.5-0.5c0.4-0.7,1.4-0.6,2.1-1c0.1-1.6-1.3,0.1-2.1,0c-0.5-0.1-0.8-1.2-0.9-1.9
	c-0.1-0.9,0.2-1.7,0.5-2.2c-1.2-0.7-1.8,1-2.7,1.4c-0.5-0.5-0.6-1.5-1.3-1.8c-0.2,0.2-0.4,0.6-0.3,1c-0.4,0-0.5,0.6-0.7,0.8
	c-0.1,0-0.2,0-0.3,0.1c-0.2,0.2-0.2,0.6-0.4,0.9c-0.1,0.2-0.5,0.3-0.7,0.5c-0.1,0.1-0.1,0.3-0.2,0.4c-0.4,0.4-0.9,0.3-1.5,0.4
	c-1.5,0.1-2.8,0.7-4.5,0.5c-0.5,0-0.6,0-1.1,0.1c-0.5,0.1-1.5,0.1-1.9,0c-0.4-0.1-1.2-1.6-1.3-2c-0.2-0.9,0.1-1.8,0.3-2.6
	c0.1-0.3,0.3-0.4,0.2-0.7c-0.1-0.4-0.9-0.5-1.4-0.4C29.8,24,29.1,25.6,29,26c-0.1,0.4,0,1.2,0,1.7c0,0.3,0,0.8,0.1,1
	c0,0.2,0.2,0.4,0.3,0.6c0.1,0.6,0,1.2,0.2,1.7c0.1,0.4,0.6,0.8,0.8,1.1c0.4,0.7,0.4,1.6,0.8,2.3c0.1,0.3,0.4,0.5,0.6,0.8
	c0.7,1.2,0.2,2.9,0.3,4.7c0.7,0.8,2.1,1.3,3.4,1.3c0.2-0.3,0.4-0.8,0.5-1.2c-0.6-0.5-1.8-1.5-0.9-2.7c0.7-0.4,1.5-0.3,2.6-0.3
	c0.7,0,1.3-0.1,1.8,0c1.7,0.2,0.7,2.8,1.7,3.5c0.8,0.5,2.3,0,2.9-0.2c0-0.5,0-0.9-0.1-1.3c-0.4-0.3-1-0.3-1.2-0.7
	c-0.1-0.3,0-0.8,0-1.3c0-0.4-0.2-0.7-0.1-1.1c0.2-1,1-1.9,1.5-2.5c0.7-0.7,1.5-1.6,2.7-1.5c0.4-0.3,1-0.4,1.4-0.7
	c0.8,0.2,1.6,0.7,2.7,0.4C51,31.5,51.1,31.2,51,30.9L51,30.9z M46.7,30.1c-0.2,0.6-1.2,0.7-1.7,1c-0.3,0.4-0.8,0.4-1.1,0.6
	c-1.5,0.7-1.9,2.6-3.2,3.5c-0.1,0-0.1,0-0.1,0c-1.6-0.1-3.5,0.1-5.2,0.2c-0.9,0-1-0.5-1.2-1.3c-0.3-1-1.4-2.5,0.2-2.8
	c0.6-0.1,1.5,0,2-0.1c1.3-0.2,2.9,0,4.3-0.4c0.8-0.2,1.9-0.7,2.4-1c0.6-0.4,0.8-0.9,1-1.9c0.6-0.6,1,0.3,1.2,0.8
	c0.4-0.3,1.1-0.8,1.6-0.2C46.6,29.2,46.8,29.6,46.7,30.1L46.7,30.1z"/>
<path class="st0" d="M39.5,6.6c0.1,0.7-0.4,1.1-0.7,1.9c-0.1,0.2-0.1,0.6-0.2,0.8c-0.1,0.5-0.4,1.3-0.3,2c0.1,0.4,0.9,1.1,1.4,1.2
	c2,0.4,2.4-1.4,3.8-1.6c0.5,0.8,0.9,1.9,0.8,3.2c-0.4,0-0.4,0.2-0.4,0.4c-0.7,0-1.3-0.6-2-0.7c-0.3,0-1.4,0-1.8,0.1
	c-0.4,0.2-0.5,0.7-1,0.9c-0.2,0.6-0.2,1.3-0.1,1.9c0.6,1,2.1,1.3,2.9,2.1c-0.7,1.3-3.4,1.1-4.3,0.2c-0.8-0.2-1.5-0.5-1.9-1.1
	c-1.3-0.4-1.8-1.6-2.6-2.6c-1-0.1-2,0.4-2.6,0.7c-0.5-0.4-0.1-0.7,0-1.3c0.1-0.4,0.2-0.8,0.4-1.1c0.3-0.4,1.1-0.9,1.5-1
	c0.4-0.1,0.9,0,1.1-0.3c0.3-1.4,0.6-2.5,1.6-3.2c0.3-0.6,0.6-1.2,1.1-1.6c0.4-0.3,0.8-0.4,1.3-0.5C38.3,6.6,39,6.1,39.5,6.6
	L39.5,6.6z M42.3,5.4C41,4.8,39.4,4.8,37.5,5c-0.1,0.3-0.6,0.1-0.6,0.4c-0.1,0-0.3,0-0.4,0c-0.8,0.8-2.3,1.4-2.9,2.6
	c-0.3,0.7-0.2,1.3-0.5,2c0,0.1-0.2,0.2-0.3,0.4c-0.2,0.3-0.3,0.7-0.6,0.8c-0.1,0.1-0.2,0-0.4,0c-0.2,0.1-0.3,0.3-0.5,0.4
	c-0.1,0.1-0.3,0-0.4,0c-0.2,0.1-0.5,0.3-0.8,0.4c-0.4,0.2-1,0.7-1.2,1.1c-0.1,0.4,0,1,0,1.6c0,0.9-0.1,1.4,0.1,2.1
	c0.2,1,1,1.7,1.4,0.5c1.1-0.7,2.6-0.2,3.2,0.9c0.2,0.3,0.2,0.6,0.5,0.9c0.4,0.3,1.2,0.4,1.8,0.7c0.7,0.3,1.9,0.7,2.6,1
	c0.4,0.1,0.8,0.4,1.1,0.4c1,0,2-0.7,2.8-1c0.8-0.3,1.8-0.5,2.6-1c0.5-0.1,0.9-0.3,1.3-0.5c-0.1-0.4-0.5-0.5-0.7-0.8
	c-0.6,0-1.1-0.2-1.6-0.4c-0.9-0.4-1.8-0.8-2-1.7c0.8-0.3,1.7-0.2,2.5,0.1c0.8,0.2,1.3,1,2.1,1c0.2-0.5-0.2-0.9-0.3-1.3
	c0-0.1,0.1-0.2,0.1-0.3c-0.2-0.9-0.6-1.7-0.7-2.6c-0.1-1.6-0.7-3.2-1-4.8c-0.3-0.1-0.4,0-0.6,0.2c-0.5,0.5-0.9,1.7-1.9,1.7
	c-0.4,0-0.8-0.2-1.3-0.5c-0.1-0.8,0.1-1.7,0.5-2.3c0.1-0.1,0.9-1,1.1-1L42.3,5.4L42.3,5.4z"/>
</svg>
